<svg version="1.1" xmlns="http://www.w3.org/2000/svg" xmlns:xlink="http://www.w3.org/1999/xlink" width="1313.55029296875" height="1325"><defs/><g><g transform="translate(-126,-68) scale(1,1)"><rect fill="#C0C0C0" stroke="none" x="674" y="85" width="150.9716796875" height="87" opacity="0.2"/></g><g transform="translate(-126,-68) scale(1,1)"><rect fill="#ffffff" stroke="none" x="667" y="78" width="150.9716796875" height="87"/></g><g transform="translate(-126,-68) scale(1,1)"><path fill="none" stroke="#000000" d="M 667 78 L 817.9716796875 78 L 817.9716796875 165 L 667 165 L 667 78 Z Z" stroke-miterlimit="10"/></g><g transform="translate(-126,-68) scale(1,1)"><path fill="none" stroke="#000000" d="M 667 118 L 817.9716796875 118" stroke-miterlimit="10"/></g><g transform="translate(-126,-68) scale(1,1)"><path fill="none" stroke="#000000" d="M 667 128 L 817.9716796875 128" stroke-miterlimit="10"/></g><g transform="translate(-126,-68) scale(1,1)"><g><path fill="none" stroke="none"/><text fill="#000000" stroke="none" font-family="Arial" font-size="13px" font-style="normal" font-weight="bold" text-decoration="none" x="721.173583984375" y="97.5">Opstart</text></g></g><g transform="translate(-126,-68) scale(1,1)"><g><path fill="none" stroke="none"/><text fill="#000000" stroke="none" font-family="Arial" font-size="13px" font-style="normal" font-weight="normal" text-decoration="none" x="708.1767578125" y="112.5">(from jesse)</text></g></g><g transform="translate(-126,-68) scale(1,1)"><g><path fill="none" stroke="none"/><text fill="#000000" stroke="none" font-family="Arial" font-size="13px" font-style="normal" font-weight="normal" text-decoration="none" x="672" y="145.5">+main(args: String): void</text><path fill="none" stroke="#000000" d="M 672 145.5 L 813.9716796875 145.5" stroke-miterlimit="10"/></g></g><g transform="translate(-126,-68) scale(1,1)"><g><path fill="none" stroke="none"/><text fill="#000000" stroke="none" font-family="Arial" font-size="13px" font-style="normal" font-weight="normal" text-decoration="none" x="672" y="160.5">+showWelkom(): void</text></g></g><g transform="translate(-126,-68) scale(1,1)"><rect fill="#C0C0C0" stroke="none" x="663" y="231" width="144.49072265625" height="72" opacity="0.2"/></g><g transform="translate(-126,-68) scale(1,1)"><rect fill="#ffffff" stroke="none" x="656" y="224" width="144.49072265625" height="72"/></g><g transform="translate(-126,-68) scale(1,1)"><path fill="none" stroke="#000000" d="M 656 224 L 800.49072265625 224 L 800.49072265625 296 L 656 296 L 656 224 Z Z" stroke-miterlimit="10"/></g><g transform="translate(-126,-68) scale(1,1)"><path fill="none" stroke="#000000" d="M 656 264 L 800.49072265625 264" stroke-miterlimit="10"/></g><g transform="translate(-126,-68) scale(1,1)"><path fill="none" stroke="#000000" d="M 656 274 L 800.49072265625 274" stroke-miterlimit="10"/></g><g transform="translate(-126,-68) scale(1,1)"><g><path fill="none" stroke="none"/><text fill="#000000" stroke="none" font-family="Arial" font-size="13px" font-style="normal" font-weight="bold" text-decoration="none" x="708.005859375" y="243.5">Paneel</text></g></g><g transform="translate(-126,-68) scale(1,1)"><g><path fill="none" stroke="none"/><text fill="#000000" stroke="none" font-family="Arial" font-size="13px" font-style="normal" font-weight="normal" text-decoration="none" x="693.936279296875" y="258.5">(from jesse)</text></g></g><g transform="translate(-126,-68) scale(1,1)"><g><path fill="none" stroke="none"/><text fill="#000000" stroke="none" font-family="Arial" font-size="13px" font-style="normal" font-weight="normal" text-decoration="none" x="661" y="291.5">«constructor»+Paneel()</text></g></g><g transform="translate(-126,-68) scale(1,1)"><rect fill="#C0C0C0" stroke="none" x="575" y="399" width="335.9931640625" height="235" opacity="0.2"/></g><g transform="translate(-126,-68) scale(1,1)"><rect fill="#ffffff" stroke="none" x="568" y="392" width="335.9931640625" height="235"/></g><g transform="translate(-126,-68) scale(1,1)"><path fill="none" stroke="#000000" d="M 568 392 L 903.9931640625 392 L 903.9931640625 627 L 568 627 L 568 392 Z Z" stroke-miterlimit="10"/></g><g transform="translate(-126,-68) scale(1,1)"><path fill="none" stroke="#000000" d="M 568 432 L 903.9931640625 432" stroke-miterlimit="10"/></g><g transform="translate(-126,-68) scale(1,1)"><path fill="none" stroke="#000000" d="M 568 485 L 903.9931640625 485" stroke-miterlimit="10"/></g><g transform="translate(-126,-68) scale(1,1)"><g><path fill="none" stroke="none"/><text fill="#000000" stroke="none" font-family="Arial" font-size="13px" font-style="normal" font-weight="bold" text-decoration="none" x="685.777099609375" y="411.5">ReactietestModel</text></g></g><g transform="translate(-126,-68) scale(1,1)"><g><path fill="none" stroke="none"/><text fill="#000000" stroke="none" font-family="Arial" font-size="13px" font-style="normal" font-weight="normal" text-decoration="none" x="701.6875" y="426.5">(from jesse)</text></g></g><g transform="translate(-126,-68) scale(1,1)"><g><path fill="none" stroke="none"/><text fill="#000000" stroke="none" font-family="Arial" font-size="13px" font-style="normal" font-weight="normal" text-decoration="none" x="573" y="449.5">-aantalKlikken: int</text></g></g><g transform="translate(-126,-68) scale(1,1)"><g><path fill="none" stroke="none"/><text fill="#000000" stroke="none" font-family="Arial" font-size="13px" font-style="normal" font-weight="normal" text-decoration="none" x="573" y="464.5">-aantalFouten: int</text></g></g><g transform="translate(-126,-68) scale(1,1)"><g><path fill="none" stroke="none"/><text fill="#000000" stroke="none" font-family="Arial" font-size="13px" font-style="normal" font-weight="normal" text-decoration="none" x="573" y="479.5">-gemiddeldeReactietijd: double</text></g></g><g transform="translate(-126,-68) scale(1,1)"><g><path fill="none" stroke="none"/><text fill="#000000" stroke="none" font-family="Arial" font-size="13px" font-style="normal" font-weight="normal" text-decoration="none" x="573" y="502.5">«constructor»+ReactietestModel()</text></g></g><g transform="translate(-126,-68) scale(1,1)"><g><path fill="none" stroke="none"/><text fill="#000000" stroke="none" font-family="Arial" font-size="13px" font-style="normal" font-weight="normal" text-decoration="none" x="573" y="517.5">+voegVormToe(vorm: AbstracteVorm): void</text></g></g><g transform="translate(-126,-68) scale(1,1)"><g><path fill="none" stroke="none"/><text fill="#000000" stroke="none" font-family="Arial" font-size="13px" font-style="normal" font-weight="normal" text-decoration="none" x="573" y="532.5">+berekenGemiddeldeReactietijd(reactietijd: double): void</text></g></g><g transform="translate(-126,-68) scale(1,1)"><g><path fill="none" stroke="none"/><text fill="#000000" stroke="none" font-family="Arial" font-size="13px" font-style="normal" font-weight="normal" text-decoration="none" x="573" y="547.5">+getGemiddeldeReactietijd(): double</text></g></g><g transform="translate(-126,-68) scale(1,1)"><g><path fill="none" stroke="none"/><text fill="#000000" stroke="none" font-family="Arial" font-size="13px" font-style="normal" font-weight="normal" text-decoration="none" x="573" y="562.5">+voegKlikToe(): void</text></g></g><g transform="translate(-126,-68) scale(1,1)"><g><path fill="none" stroke="none"/><text fill="#000000" stroke="none" font-family="Arial" font-size="13px" font-style="normal" font-weight="normal" text-decoration="none" x="573" y="577.5">+voegFoutToe(): void</text></g></g><g transform="translate(-126,-68) scale(1,1)"><g><path fill="none" stroke="none"/><text fill="#000000" stroke="none" font-family="Arial" font-size="13px" font-style="normal" font-weight="normal" text-decoration="none" x="573" y="592.5">+getAantalFouten(): int</text></g></g><g transform="translate(-126,-68) scale(1,1)"><g><path fill="none" stroke="none"/><text fill="#000000" stroke="none" font-family="Arial" font-size="13px" font-style="normal" font-weight="normal" text-decoration="none" x="573" y="607.5">+reset(): void</text></g></g><g transform="translate(-126,-68) scale(1,1)"><g><path fill="none" stroke="none"/><text fill="#000000" stroke="none" font-family="Arial" font-size="13px" font-style="normal" font-weight="normal" text-decoration="none" x="573" y="622.5">+printScore(): void</text></g></g><g transform="translate(-126,-68) scale(1,1)"><path fill="none" stroke="#000000" d="M 729 297 L 732 391" stroke-miterlimit="10"/></g><g transform="translate(-126,-68) scale(1,1)"><path fill="none" stroke="#000000" d="M 727.468448799052 380.97677478487157 L 732 391 L 735.8831999354929 380.7082188975383" stroke-miterlimit="10"/></g><g transform="translate(-126,-68) scale(1,1)"><g><path fill="none" stroke="none"/><text fill="#000000" stroke="none" font-family="Arial" font-size="13px" font-style="normal" font-weight="normal" text-decoration="none" x="726.5" y="370.5">-model</text></g></g><g transform="translate(-126,-68) scale(1,1)"><rect fill="#C0C0C0" stroke="none" x="1047" y="359" width="340.29052734375" height="310" opacity="0.2"/></g><g transform="translate(-126,-68) scale(1,1)"><rect fill="#ffffff" stroke="none" x="1040" y="352" width="340.29052734375" height="310"/></g><g transform="translate(-126,-68) scale(1,1)"><path fill="none" stroke="#000000" d="M 1040 352 L 1380.29052734375 352 L 1380.29052734375 662 L 1040 662 L 1040 352 Z Z" stroke-miterlimit="10"/></g><g transform="translate(-126,-68) scale(1,1)"><path fill="none" stroke="#000000" d="M 1040 392 L 1380.29052734375 392" stroke-miterlimit="10"/></g><g transform="translate(-126,-68) scale(1,1)"><path fill="none" stroke="#000000" d="M 1040 430 L 1380.29052734375 430" stroke-miterlimit="10"/></g><g transform="translate(-126,-68) scale(1,1)"><g><path fill="none" stroke="none"/><text fill="#000000" stroke="none" font-family="Arial" font-size="13px" font-style="normal" font-weight="bold" text-decoration="none" x="1163.540771484375" y="371.5">ReactietestView</text></g></g><g transform="translate(-126,-68) scale(1,1)"><g><path fill="none" stroke="none"/><text fill="#000000" stroke="none" font-family="Arial" font-size="13px" font-style="normal" font-weight="normal" text-decoration="none" x="1175.836181640625" y="386.5">(from jesse)</text></g></g><g transform="translate(-126,-68) scale(1,1)"><g><path fill="none" stroke="none"/><text fill="#000000" stroke="none" font-family="Arial" font-size="13px" font-style="normal" font-weight="normal" text-decoration="none" x="1045" y="409.5">-grootte: int</text></g></g><g transform="translate(-126,-68) scale(1,1)"><g><path fill="none" stroke="none"/><text fill="#000000" stroke="none" font-family="Arial" font-size="13px" font-style="normal" font-weight="normal" text-decoration="none" x="1045" y="424.5">-rand: Border</text></g></g><g transform="translate(-126,-68) scale(1,1)"><g><path fill="none" stroke="none"/><text fill="#000000" stroke="none" font-family="Arial" font-size="13px" font-style="normal" font-weight="normal" text-decoration="none" x="1045" y="447.5">«constructor»+ReactietestView(model: ReactietestModel)</text></g></g><g transform="translate(-126,-68) scale(1,1)"><g><path fill="none" stroke="none"/><text fill="#000000" stroke="none" font-family="Arial" font-size="13px" font-style="normal" font-weight="normal" text-decoration="none" x="1045" y="462.5">+startCircel(): void</text></g></g><g transform="translate(-126,-68) scale(1,1)"><g><path fill="none" stroke="none"/><text fill="#000000" stroke="none" font-family="Arial" font-size="13px" font-style="normal" font-weight="normal" text-decoration="none" x="1045" y="477.5">+startDriehoek(): void</text></g></g><g transform="translate(-126,-68) scale(1,1)"><g><path fill="none" stroke="none"/><text fill="#000000" stroke="none" font-family="Arial" font-size="13px" font-style="normal" font-weight="normal" text-decoration="none" x="1045" y="492.5">+startVierkant(): void</text></g></g><g transform="translate(-126,-68) scale(1,1)"><g><path fill="none" stroke="none"/><text fill="#000000" stroke="none" font-family="Arial" font-size="13px" font-style="normal" font-weight="normal" text-decoration="none" x="1045" y="507.5">+startRechthoek(): void</text></g></g><g transform="translate(-126,-68) scale(1,1)"><g><path fill="none" stroke="none"/><text fill="#000000" stroke="none" font-family="Arial" font-size="13px" font-style="normal" font-weight="normal" text-decoration="none" x="1045" y="522.5">+stopCircel(): void</text></g></g><g transform="translate(-126,-68) scale(1,1)"><g><path fill="none" stroke="none"/><text fill="#000000" stroke="none" font-family="Arial" font-size="13px" font-style="normal" font-weight="normal" text-decoration="none" x="1045" y="537.5">+stopDriehoek(): void</text></g></g><g transform="translate(-126,-68) scale(1,1)"><g><path fill="none" stroke="none"/><text fill="#000000" stroke="none" font-family="Arial" font-size="13px" font-style="normal" font-weight="normal" text-decoration="none" x="1045" y="552.5">+stopVierkant(): void</text></g></g><g transform="translate(-126,-68) scale(1,1)"><g><path fill="none" stroke="none"/><text fill="#000000" stroke="none" font-family="Arial" font-size="13px" font-style="normal" font-weight="normal" text-decoration="none" x="1045" y="567.5">+stopRechthoek(): void</text></g></g><g transform="translate(-126,-68) scale(1,1)"><g><path fill="none" stroke="none"/><text fill="#000000" stroke="none" font-family="Arial" font-size="13px" font-style="normal" font-weight="normal" text-decoration="none" x="1045" y="582.5">+klikCircel(): void</text></g></g><g transform="translate(-126,-68) scale(1,1)"><g><path fill="none" stroke="none"/><text fill="#000000" stroke="none" font-family="Arial" font-size="13px" font-style="normal" font-weight="normal" text-decoration="none" x="1045" y="597.5">+klikDriehoek(): void</text></g></g><g transform="translate(-126,-68) scale(1,1)"><g><path fill="none" stroke="none"/><text fill="#000000" stroke="none" font-family="Arial" font-size="13px" font-style="normal" font-weight="normal" text-decoration="none" x="1045" y="612.5">+klikVierkant(): void</text></g></g><g transform="translate(-126,-68) scale(1,1)"><g><path fill="none" stroke="none"/><text fill="#000000" stroke="none" font-family="Arial" font-size="13px" font-style="normal" font-weight="normal" text-decoration="none" x="1045" y="627.5">+klikRechthoek(): void</text></g></g><g transform="translate(-126,-68) scale(1,1)"><g><path fill="none" stroke="none"/><text fill="#000000" stroke="none" font-family="Arial" font-size="13px" font-style="normal" font-weight="normal" text-decoration="none" x="1045" y="642.5">+start(): void</text></g></g><g transform="translate(-126,-68) scale(1,1)"><g><path fill="none" stroke="none"/><text fill="#000000" stroke="none" font-family="Arial" font-size="13px" font-style="normal" font-weight="normal" text-decoration="none" x="1045" y="657.5">+stop(): void</text></g></g><g transform="translate(-126,-68) scale(1,1)"><path fill="none" stroke="#000000" d="M 800 297 L 1039 419" stroke-miterlimit="10"/></g><g transform="translate(-126,-68) scale(1,1)"><path fill="none" stroke="#000000" d="M 1028.0345526013273 418.1288149754829 L 1039 419 L 1031.8622786241583 410.63023694714997" stroke-miterlimit="10"/></g><g transform="translate(-126,-68) scale(1,1)"><g><path fill="none" stroke="none"/><text fill="#000000" stroke="none" font-family="Arial" font-size="13px" font-style="normal" font-weight="normal" text-decoration="none" x="1006.5" y="399.5">-view</text></g></g><g transform="translate(-126,-68) scale(1,1)"><path fill="none" stroke="#000000" d="M 1039 508 L 905 508" stroke-miterlimit="10"/></g><g transform="translate(-126,-68) scale(1,1)"><path fill="none" stroke="#000000" d="M 915.1626748576241 503.790482243984 L 905 508 L 915.1626748576241 512.209517756016" stroke-miterlimit="10"/></g><g transform="translate(-126,-68) scale(1,1)"><g><path fill="none" stroke="none"/><text fill="#000000" stroke="none" font-family="Arial" font-size="13px" font-style="normal" font-weight="normal" text-decoration="none" x="910.5" y="528.5">-model</text></g></g><g transform="translate(-126,-68) scale(1,1)"><rect fill="#C0C0C0" stroke="none" x="951" y="711" width="485.55029296875" height="190" opacity="0.2"/></g><g transform="translate(-126,-68) scale(1,1)"><rect fill="#ffffff" stroke="none" x="944" y="704" width="485.55029296875" height="190"/></g><g transform="translate(-126,-68) scale(1,1)"><path fill="none" stroke="#000000" d="M 944 704 L 1429.55029296875 704 L 1429.55029296875 894 L 944 894 L 944 704 Z Z" stroke-miterlimit="10"/></g><g transform="translate(-126,-68) scale(1,1)"><path fill="none" stroke="#000000" d="M 944 744 L 1429.55029296875 744" stroke-miterlimit="10"/></g><g transform="translate(-126,-68) scale(1,1)"><path fill="none" stroke="#000000" d="M 944 842 L 1429.55029296875 842" stroke-miterlimit="10"/></g><g transform="translate(-126,-68) scale(1,1)"><g><path fill="none" stroke="none"/><text fill="#000000" stroke="none" font-family="Arial" font-size="13px" font-style="normal" font-weight="bold" text-decoration="none" x="1134.3720703125" y="723.5">BedieningsPaneel</text></g></g><g transform="translate(-126,-68) scale(1,1)"><g><path fill="none" stroke="none"/><text fill="#000000" stroke="none" font-family="Arial" font-size="13px" font-style="normal" font-weight="normal" text-decoration="none" x="1152.466064453125" y="738.5">(from jesse)</text></g></g><g transform="translate(-126,-68) scale(1,1)"><g><path fill="none" stroke="none"/><text fill="#000000" stroke="none" font-family="Arial" font-size="13px" font-style="normal" font-weight="normal" text-decoration="none" x="949" y="761.5">-startKnop: JButton</text></g></g><g transform="translate(-126,-68) scale(1,1)"><g><path fill="none" stroke="none"/><text fill="#000000" stroke="none" font-family="Arial" font-size="13px" font-style="normal" font-weight="normal" text-decoration="none" x="949" y="776.5">-stopKnop: JButton</text></g></g><g transform="translate(-126,-68) scale(1,1)"><g><path fill="none" stroke="none"/><text fill="#000000" stroke="none" font-family="Arial" font-size="13px" font-style="normal" font-weight="normal" text-decoration="none" x="949" y="791.5">-circelKnop: JButton</text></g></g><g transform="translate(-126,-68) scale(1,1)"><g><path fill="none" stroke="none"/><text fill="#000000" stroke="none" font-family="Arial" font-size="13px" font-style="normal" font-weight="normal" text-decoration="none" x="949" y="806.5">-driehoekKnop: JButton</text></g></g><g transform="translate(-126,-68) scale(1,1)"><g><path fill="none" stroke="none"/><text fill="#000000" stroke="none" font-family="Arial" font-size="13px" font-style="normal" font-weight="normal" text-decoration="none" x="949" y="821.5">-vierkantKnop: JButton</text></g></g><g transform="translate(-126,-68) scale(1,1)"><g><path fill="none" stroke="none"/><text fill="#000000" stroke="none" font-family="Arial" font-size="13px" font-style="normal" font-weight="normal" text-decoration="none" x="949" y="836.5">-rechthoekKnop: JButton</text></g></g><g transform="translate(-126,-68) scale(1,1)"><g><path fill="none" stroke="none"/><text fill="#000000" stroke="none" font-family="Arial" font-size="13px" font-style="normal" font-weight="normal" text-decoration="none" x="949" y="859.5">«constructor»+BedieningsPaneel(model: ReactietestModel, view: ReactietestView)</text></g></g><g transform="translate(-126,-68) scale(1,1)"><g><path fill="none" stroke="none"/><text fill="#000000" stroke="none" font-family="Arial" font-size="13px" font-style="normal" font-weight="normal" text-decoration="none" x="949" y="874.5">+start(): void</text></g></g><g transform="translate(-126,-68) scale(1,1)"><g><path fill="none" stroke="none"/><text fill="#000000" stroke="none" font-family="Arial" font-size="13px" font-style="normal" font-weight="normal" text-decoration="none" x="949" y="889.5">+stop(): void</text></g></g><g transform="translate(-126,-68) scale(1,1)"><path fill="none" stroke="#000000" d="M 943 800 L 736 800 L 735 628" stroke-miterlimit="10"/></g><g transform="translate(-126,-68) scale(1,1)"><path fill="none" stroke="#000000" d="M 739.2685309330062 638.1380295755126 L 735 628 L 730.8496377077186 638.186976629148" stroke-miterlimit="10"/></g><g transform="translate(-126,-68) scale(1,1)"><g><path fill="none" stroke="none"/><text fill="#000000" stroke="none" font-family="Arial" font-size="13px" font-style="normal" font-weight="normal" text-decoration="none" x="700.5" y="660.5">-model</text></g></g><g transform="translate(-126,-68) scale(1,1)"><path fill="none" stroke="#000000" d="M 1194 703 L 1197 663" stroke-miterlimit="10"/></g><g transform="translate(-126,-68) scale(1,1)"><path fill="none" stroke="#000000" d="M 1200.437662274664 673.4490419697382 L 1197 663 L 1192.0422058721394 672.8193827395489" stroke-miterlimit="10"/></g><g transform="translate(-126,-68) scale(1,1)"><g><path fill="none" stroke="none"/><text fill="#000000" stroke="none" font-family="Arial" font-size="13px" font-style="normal" font-weight="normal" text-decoration="none" x="1164.5" y="693.5">-view</text></g></g><g transform="translate(-126,-68) scale(1,1)"><rect fill="#C0C0C0" stroke="none" x="143" y="263" width="321.5205078125" height="190" opacity="0.2"/></g><g transform="translate(-126,-68) scale(1,1)"><rect fill="#ffffff" stroke="none" x="136" y="256" width="321.5205078125" height="190"/></g><g transform="translate(-126,-68) scale(1,1)"><path fill="none" stroke="#000000" d="M 136 256 L 457.5205078125 256 L 457.5205078125 446 L 136 446 L 136 256 Z Z" stroke-miterlimit="10"/></g><g transform="translate(-126,-68) scale(1,1)"><path fill="none" stroke="#000000" d="M 136 296 L 457.5205078125 296" stroke-miterlimit="10"/></g><g transform="translate(-126,-68) scale(1,1)"><path fill="none" stroke="#000000" d="M 136 364 L 457.5205078125 364" stroke-miterlimit="10"/></g><g transform="translate(-126,-68) scale(1,1)"><g><path fill="none" stroke="none"/><text fill="#000000" stroke="none" font-family="Arial" font-size="13px" font-style="normal" font-weight="bold" text-decoration="none" x="259.540771484375" y="275.5">ScorePaneel</text></g></g><g transform="translate(-126,-68) scale(1,1)"><g><path fill="none" stroke="none"/><text fill="#000000" stroke="none" font-family="Arial" font-size="13px" font-style="normal" font-weight="normal" text-decoration="none" x="262.451171875" y="290.5">(from jesse)</text></g></g><g transform="translate(-126,-68) scale(1,1)"><g><path fill="none" stroke="none"/><text fill="#000000" stroke="none" font-family="Arial" font-size="13px" font-style="normal" font-weight="normal" text-decoration="none" x="141" y="313.5">-draad: Thread</text></g></g><g transform="translate(-126,-68) scale(1,1)"><g><path fill="none" stroke="none"/><text fill="#000000" stroke="none" font-family="Arial" font-size="13px" font-style="normal" font-weight="normal" text-decoration="none" x="141" y="328.5">-doorgaan: boolean</text></g></g><g transform="translate(-126,-68) scale(1,1)"><g><path fill="none" stroke="none"/><text fill="#000000" stroke="none" font-family="Arial" font-size="13px" font-style="normal" font-weight="normal" text-decoration="none" x="141" y="343.5">-labels: JLabel[*]</text></g></g><g transform="translate(-126,-68) scale(1,1)"><g><path fill="none" stroke="none"/><text fill="#000000" stroke="none" font-family="Arial" font-size="13px" font-style="normal" font-weight="normal" text-decoration="none" x="141" y="358.5">-tijdlabels: JLabel[*] {collection="ArrayList"}</text></g></g><g transform="translate(-126,-68) scale(1,1)"><g><path fill="none" stroke="none"/><text fill="#000000" stroke="none" font-family="Arial" font-size="13px" font-style="normal" font-weight="normal" text-decoration="none" x="141" y="381.5">«constructor»+ScorePaneel(model: ReactietestModel)</text></g></g><g transform="translate(-126,-68) scale(1,1)"><g><path fill="none" stroke="none"/><text fill="#000000" stroke="none" font-family="Arial" font-size="13px" font-style="normal" font-weight="normal" text-decoration="none" x="141" y="396.5">+voegTijdlabelToe(): void</text></g></g><g transform="translate(-126,-68) scale(1,1)"><g><path fill="none" stroke="none"/><text fill="#000000" stroke="none" font-family="Arial" font-size="13px" font-style="normal" font-weight="normal" text-decoration="none" x="141" y="411.5">+begin(): void</text></g></g><g transform="translate(-126,-68) scale(1,1)"><g><path fill="none" stroke="none"/><text fill="#000000" stroke="none" font-family="Arial" font-size="13px" font-style="normal" font-weight="normal" text-decoration="none" x="141" y="426.5">+run(): void</text></g></g><g transform="translate(-126,-68) scale(1,1)"><g><path fill="none" stroke="none"/><text fill="#000000" stroke="none" font-family="Arial" font-size="13px" font-style="normal" font-weight="normal" text-decoration="none" x="141" y="441.5">+slaap(millisec: int): void</text></g></g><g transform="translate(-126,-68) scale(1,1)"><path fill="none" stroke="#000000" d="M 655 275 L 459 317" stroke-miterlimit="10"/></g><g transform="translate(-126,-68) scale(1,1)"><path fill="none" stroke="#000000" d="M 468.0550715898542 310.7545473740797 L 459 317 L 469.81910442868315 318.986700621948" stroke-miterlimit="10"/></g><g transform="translate(-126,-68) scale(1,1)"><g><path fill="none" stroke="none"/><text fill="#000000" stroke="none" font-family="Arial" font-size="13px" font-style="normal" font-weight="normal" text-decoration="none" x="448.5" y="332.5">-scorePaneel</text></g></g><g transform="translate(-126,-68) scale(1,1)"><path fill="none" stroke="#000000" d="M 459 409 L 567 449" stroke-miterlimit="10"/></g><g transform="translate(-126,-68) scale(1,1)"><path fill="none" stroke="#000000" d="M 556.0079382988663 449.41782718732804 L 567 449 L 558.9319901943837 441.5228870694312" stroke-miterlimit="10"/></g><g transform="translate(-126,-68) scale(1,1)"><g><path fill="none" stroke="none"/><text fill="#000000" stroke="none" font-family="Arial" font-size="13px" font-style="normal" font-weight="normal" text-decoration="none" x="527.5" y="431.5">-model</text></g></g><g transform="translate(-126,-68) scale(1,1)"><path fill="#C0C0C0" stroke="none" d="M 234.30908203125 1226.5 C 234.30908203125 1220.1487248 239.45780683125 1215 245.80908203125 1215 C 252.16035723125 1215 257.30908203125 1220.1487248 257.30908203125 1226.5 C 257.30908203125 1232.8512752 252.16035723125 1238 245.80908203125 1238 C 239.45780683125 1238 234.30908203125 1232.8512752 234.30908203125 1226.5 Z" opacity="0.2"/></g><g transform="translate(-126,-68) scale(1,1)"><path fill="#ffffff" stroke="none" d="M 227.30908203125 1219.5 C 227.30908203125 1213.1487248 232.45780683125 1208 238.80908203125 1208 C 245.16035723125 1208 250.30908203125 1213.1487248 250.30908203125 1219.5 C 250.30908203125 1225.8512752 245.16035723125 1231 238.80908203125 1231 C 232.45780683125 1231 227.30908203125 1225.8512752 227.30908203125 1219.5 Z"/></g><g transform="translate(-126,-68) scale(1,1)"><path fill="none" stroke="#000000" d="M 227.30908203125 1219.5 C 227.30908203125 1213.1487248 232.45780683125 1208 238.80908203125 1208 C 245.16035723125 1208 250.30908203125 1213.1487248 250.30908203125 1219.5 C 250.30908203125 1225.8512752 245.16035723125 1231 238.80908203125 1231 C 232.45780683125 1231 227.30908203125 1225.8512752 227.30908203125 1219.5 Z" stroke-miterlimit="10"/></g><g transform="translate(-126,-68) scale(1,1)"><g><path fill="none" stroke="none"/><text fill="#000000" stroke="none" font-family="Arial" font-size="13px" font-style="normal" font-weight="bold" text-decoration="none" x="223.279541015625" y="1250.5">Vorm</text></g></g><g transform="translate(-126,-68) scale(1,1)"><g><path fill="none" stroke="none"/><text fill="#000000" stroke="none" font-family="Arial" font-size="13px" font-style="normal" font-weight="normal" text-decoration="none" x="204.5" y="1265.5">(from jesse)</text></g></g><g transform="translate(-126,-68) scale(1,1)"><rect fill="#C0C0C0" stroke="none" x="343" y="967" width="640.109375" height="100" opacity="0.2"/></g><g transform="translate(-126,-68) scale(1,1)"><rect fill="#ffffff" stroke="none" x="336" y="960" width="640.109375" height="100"/></g><g transform="translate(-126,-68) scale(1,1)"><path fill="none" stroke="#000000" d="M 336 960 L 976.109375 960 L 976.109375 1060 L 336 1060 L 336 960 Z Z" stroke-miterlimit="10"/></g><g transform="translate(-126,-68) scale(1,1)"><path fill="none" stroke="#000000" d="M 336 1000 L 976.109375 1000" stroke-miterlimit="10"/></g><g transform="translate(-126,-68) scale(1,1)"><path fill="none" stroke="#000000" d="M 336 1023 L 976.109375 1023" stroke-miterlimit="10"/></g><g transform="translate(-126,-68) scale(1,1)"><g><path fill="none" stroke="none"/><text fill="#000000" stroke="none" font-family="Arial" font-size="13px" font-style="normal" font-weight="bold" text-decoration="none" x="639.44287109375" y="979.5">Circel</text></g></g><g transform="translate(-126,-68) scale(1,1)"><g><path fill="none" stroke="none"/><text fill="#000000" stroke="none" font-family="Arial" font-size="13px" font-style="normal" font-weight="normal" text-decoration="none" x="621.74560546875" y="994.5">(from jesse)</text></g></g><g transform="translate(-126,-68) scale(1,1)"><g><path fill="none" stroke="none"/><text fill="#000000" stroke="none" font-family="Arial" font-size="13px" font-style="normal" font-weight="normal" text-decoration="none" x="341" y="1017.5">-diameter: int</text></g></g><g transform="translate(-126,-68) scale(1,1)"><g><path fill="none" stroke="none"/><text fill="#000000" stroke="none" font-family="Arial" font-size="13px" font-style="normal" font-weight="normal" text-decoration="none" x="341" y="1040.5">«constructor»+Circel(g: Graphics, model: ReactietestModel, view: ReactietestView, diameter: int, kleur: Color)</text></g></g><g transform="translate(-126,-68) scale(1,1)"><g><path fill="none" stroke="none"/><text fill="#000000" stroke="none" font-family="Arial" font-size="13px" font-style="normal" font-weight="normal" text-decoration="none" x="341" y="1055.5">+teken(): void</text></g></g><g transform="translate(-126,-68) scale(1,1)"><path fill="none" stroke="#000000" d="M 335 1002 L 240 1000 L 238 1208" stroke-miterlimit="10"/></g><g transform="translate(-126,-68) scale(1,1)"><rect fill="#C0C0C0" stroke="none" x="343" y="1119" width="720.36279296875" height="115" opacity="0.2"/></g><g transform="translate(-126,-68) scale(1,1)"><rect fill="#ffffff" stroke="none" x="336" y="1112" width="720.36279296875" height="115"/></g><g transform="translate(-126,-68) scale(1,1)"><path fill="none" stroke="#000000" d="M 336 1112 L 1056.36279296875 1112 L 1056.36279296875 1227 L 336 1227 L 336 1112 Z Z" stroke-miterlimit="10"/></g><g transform="translate(-126,-68) scale(1,1)"><path fill="none" stroke="#000000" d="M 336 1152 L 1056.36279296875 1152" stroke-miterlimit="10"/></g><g transform="translate(-126,-68) scale(1,1)"><path fill="none" stroke="#000000" d="M 336 1190 L 1056.36279296875 1190" stroke-miterlimit="10"/></g><g transform="translate(-126,-68) scale(1,1)"><g><path fill="none" stroke="none"/><text fill="#000000" stroke="none" font-family="Arial" font-size="13px" font-style="normal" font-weight="bold" text-decoration="none" x="670.168701171875" y="1131.5">Driehoek</text></g></g><g transform="translate(-126,-68) scale(1,1)"><g><path fill="none" stroke="none"/><text fill="#000000" stroke="none" font-family="Arial" font-size="13px" font-style="normal" font-weight="normal" text-decoration="none" x="661.872314453125" y="1146.5">(from jesse)</text></g></g><g transform="translate(-126,-68) scale(1,1)"><g><path fill="none" stroke="none"/><text fill="#000000" stroke="none" font-family="Arial" font-size="13px" font-style="normal" font-weight="normal" text-decoration="none" x="341" y="1169.5">-xPoints: int[*]</text></g></g><g transform="translate(-126,-68) scale(1,1)"><g><path fill="none" stroke="none"/><text fill="#000000" stroke="none" font-family="Arial" font-size="13px" font-style="normal" font-weight="normal" text-decoration="none" x="341" y="1184.5">-yPoints: int[*]</text></g></g><g transform="translate(-126,-68) scale(1,1)"><g><path fill="none" stroke="none"/><text fill="#000000" stroke="none" font-family="Arial" font-size="13px" font-style="normal" font-weight="normal" text-decoration="none" x="341" y="1207.5">«constructor»+Driehoek(g: Graphics, model: ReactietestModel, view: ReactietestView, breedte: int, hoogte: int, kleur: Color)</text></g></g><g transform="translate(-126,-68) scale(1,1)"><g><path fill="none" stroke="none"/><text fill="#000000" stroke="none" font-family="Arial" font-size="13px" font-style="normal" font-weight="normal" text-decoration="none" x="341" y="1222.5">+teken(): void</text></g></g><g transform="translate(-126,-68) scale(1,1)"><path fill="none" stroke="#000000" d="M 335 1224 L 250.30908203125 1223.2031011814024" stroke-miterlimit="10"/></g><g transform="translate(-126,-68) scale(1,1)"><rect fill="#C0C0C0" stroke="none" x="343" y="1303" width="730.4873046875" height="87" opacity="0.2"/></g><g transform="translate(-126,-68) scale(1,1)"><rect fill="#ffffff" stroke="none" x="336" y="1296" width="730.4873046875" height="87"/></g><g transform="translate(-126,-68) scale(1,1)"><path fill="none" stroke="#000000" d="M 336 1296 L 1066.4873046875 1296 L 1066.4873046875 1383 L 336 1383 L 336 1296 Z Z" stroke-miterlimit="10"/></g><g transform="translate(-126,-68) scale(1,1)"><path fill="none" stroke="#000000" d="M 336 1336 L 1066.4873046875 1336" stroke-miterlimit="10"/></g><g transform="translate(-126,-68) scale(1,1)"><path fill="none" stroke="#000000" d="M 336 1346 L 1066.4873046875 1346" stroke-miterlimit="10"/></g><g transform="translate(-126,-68) scale(1,1)"><g><path fill="none" stroke="none"/><text fill="#000000" stroke="none" font-family="Arial" font-size="13px" font-style="normal" font-weight="bold" text-decoration="none" x="670.168701171875" y="1315.5">Rechthoek</text></g></g><g transform="translate(-126,-68) scale(1,1)"><g><path fill="none" stroke="none"/><text fill="#000000" stroke="none" font-family="Arial" font-size="13px" font-style="normal" font-weight="normal" text-decoration="none" x="666.9345703125" y="1330.5">(from jesse)</text></g></g><g transform="translate(-126,-68) scale(1,1)"><g><path fill="none" stroke="none"/><text fill="#000000" stroke="none" font-family="Arial" font-size="13px" font-style="normal" font-weight="normal" text-decoration="none" x="341" y="1363.5">«constructor»+Rechthoek(g: Graphics, model: ReactietestModel, view: ReactietestView, breedte: int, hoogte: int, kleur: Color)</text></g></g><g transform="translate(-126,-68) scale(1,1)"><g><path fill="none" stroke="none"/><text fill="#000000" stroke="none" font-family="Arial" font-size="13px" font-style="normal" font-weight="normal" text-decoration="none" x="341" y="1378.5">+teken(): void</text></g></g><g transform="translate(-126,-68) scale(1,1)"><path fill="none" stroke="#000000" d="M 335 1343 L 240 1344 L 238.22641509433961 1231" stroke-miterlimit="10"/></g><g transform="translate(-126,-68) scale(1,1)"><rect fill="#C0C0C0" stroke="none" x="1151" y="1143" width="123.13720703125" height="59" opacity="0.2"/></g><g transform="translate(-126,-68) scale(1,1)"><rect fill="#ffffff" stroke="none" x="1144" y="1136" width="123.13720703125" height="59"/></g><g transform="translate(-126,-68) scale(1,1)"><path fill="none" stroke="#000000" d="M 1144 1136 L 1267.13720703125 1136 L 1267.13720703125 1195 L 1144 1195 L 1144 1136 Z Z" stroke-miterlimit="10"/></g><g transform="translate(-126,-68) scale(1,1)"><path fill="none" stroke="#000000" d="M 1144 1176 L 1267.13720703125 1176" stroke-miterlimit="10"/></g><g transform="translate(-126,-68) scale(1,1)"><path fill="none" stroke="#000000" d="M 1144 1186 L 1267.13720703125 1186" stroke-miterlimit="10"/></g><g transform="translate(-126,-68) scale(1,1)"><g><path fill="none" stroke="none"/><text fill="#000000" stroke="none" font-family="Arial" font-size="13px" font-style="normal" font-weight="bold" text-decoration="none" x="1162.582275390625" y="1155.5">AbstracteVorm</text></g></g><g transform="translate(-126,-68) scale(1,1)"><g><path fill="none" stroke="none"/><text fill="#000000" stroke="none" font-family="Arial" font-size="13px" font-style="normal" font-weight="normal" text-decoration="none" x="1148.5" y="1170.5">(from JavaReverse)</text></g></g><g transform="translate(-126,-68) scale(1,1)"><path fill="none" stroke="#000000" d="M 837 1061 L 1143 1147" stroke-miterlimit="10"/></g><g transform="translate(-126,-68) scale(1,1)"><path fill="#FFFFFF" stroke="none" d="M 1121.1548591985288 1149.6057289505807 L 1143 1147 L 1125.710624192415 1133.3956814141943"/></g><g transform="translate(-126,-68) scale(1,1)"><path fill="none" stroke="#000000" d="M 1121.1548591985288 1149.6057289505807 L 1143 1147 L 1125.710624192415 1133.3956814141943 L 1121.1548591985288 1149.6057289505807" stroke-miterlimit="10"/></g><g transform="translate(-126,-68) scale(1,1)"><path fill="none" stroke="#000000" d="M 1057 1166 L 1143 1165" stroke-miterlimit="10"/></g><g transform="translate(-126,-68) scale(1,1)"><path fill="#FFFFFF" stroke="none" d="M 1122.7739133668952 1173.6547917080734 L 1143 1165 L 1122.578135078329 1156.8178588914006"/></g><g transform="translate(-126,-68) scale(1,1)"><path fill="none" stroke="#000000" d="M 1122.7739133668952 1173.6547917080734 L 1143 1165 L 1122.578135078329 1156.8178588914006 L 1122.7739133668952 1173.6547917080734" stroke-miterlimit="10"/></g><g transform="translate(-126,-68) scale(1,1)"><path fill="none" stroke="#000000" d="M 820 628 L 1184 1135" stroke-miterlimit="10"/></g><g transform="translate(-126,-68) scale(1,1)"><path fill="none" stroke="#000000" d="M 1174.653567908494 1129.1996373252296 L 1184 1135 L 1181.4925502688682 1124.289598707525" stroke-miterlimit="10"/></g><g transform="translate(-126,-68) scale(1,1)"><g><path fill="none" stroke="none"/><text fill="#000000" stroke="none" font-family="Arial" font-size="13px" font-style="normal" font-weight="normal" text-decoration="none" x="1155.5" y="1111.5">+vormen</text></g></g><g transform="translate(-126,-68) scale(1,1)"><g><path fill="none" stroke="none"/><text fill="#000000" stroke="none" font-family="Arial" font-size="13px" font-style="normal" font-weight="normal" text-decoration="none" x="1124.5" y="1101.5">{collection="ArrayList"}</text></g></g><g transform="translate(-126,-68) scale(1,1)"><g><path fill="none" stroke="none"/><text fill="#000000" stroke="none" font-family="Arial" font-size="13px" font-style="normal" font-weight="normal" text-decoration="none" x="1158.5" y="1130.5">*</text></g></g><g transform="translate(-126,-68) scale(1,1)"><path fill="none" stroke="#000000" d="M 1209 663 L 1205 1135" stroke-miterlimit="10"/></g><g transform="translate(-126,-68) scale(1,1)"><path fill="none" stroke="#000000" d="M 1200.8767546670558 1124.8020174581266 L 1205 1135 L 1209.29548787436 1124.8733626547987" stroke-miterlimit="10"/></g><g transform="translate(-126,-68) scale(1,1)"><g><path fill="none" stroke="none"/><text fill="#000000" stroke="none" font-family="Arial" font-size="13px" font-style="normal" font-weight="normal" text-decoration="none" x="1202.5" y="1115.5">-circel</text></g></g><g transform="translate(-126,-68) scale(1,1)"><path fill="none" stroke="#000000" d="M 1209 663 L 1205 1135" stroke-miterlimit="10"/></g><g transform="translate(-126,-68) scale(1,1)"><path fill="none" stroke="#000000" d="M 1200.8767546670558 1124.8020174581266 L 1205 1135 L 1209.29548787436 1124.8733626547987" stroke-miterlimit="10"/></g><g transform="translate(-126,-68) scale(1,1)"><g><path fill="none" stroke="none"/><text fill="#000000" stroke="none" font-family="Arial" font-size="13px" font-style="normal" font-weight="normal" text-decoration="none" x="1192.5" y="1115.5">-driehoek</text></g></g><g transform="translate(-126,-68) scale(1,1)"><path fill="none" stroke="#000000" d="M 1209 663 L 1205 1135" stroke-miterlimit="10"/></g><g transform="translate(-126,-68) scale(1,1)"><path fill="none" stroke="#000000" d="M 1200.8767546670558 1124.8020174581266 L 1205 1135 L 1209.29548787436 1124.8733626547987" stroke-miterlimit="10"/></g><g transform="translate(-126,-68) scale(1,1)"><g><path fill="none" stroke="none"/><text fill="#000000" stroke="none" font-family="Arial" font-size="13px" font-style="normal" font-weight="normal" text-decoration="none" x="1195.5" y="1115.5">-vierkant</text></g></g><g transform="translate(-126,-68) scale(1,1)"><path fill="none" stroke="#000000" d="M 1209 663 L 1205 1135" stroke-miterlimit="10"/></g><g transform="translate(-126,-68) scale(1,1)"><path fill="none" stroke="#000000" d="M 1200.8767546670558 1124.8020174581266 L 1205 1135 L 1209.29548787436 1124.8733626547987" stroke-miterlimit="10"/></g><g transform="translate(-126,-68) scale(1,1)"><g><path fill="none" stroke="none"/><text fill="#000000" stroke="none" font-family="Arial" font-size="13px" font-style="normal" font-weight="normal" text-decoration="none" x="1189.5" y="1115.5">-rechthoek</text></g></g><g transform="translate(-126,-68) scale(1,1)"><path fill="none" stroke="#000000" d="M 828 1295 L 1143 1186" stroke-miterlimit="10"/></g><g transform="translate(-126,-68) scale(1,1)"><path fill="#FFFFFF" stroke="none" d="M 1126.5451906665578 1200.6027137820358 L 1143 1186 L 1121.0390147981875 1184.6903706761952"/></g><g transform="translate(-126,-68) scale(1,1)"><path fill="none" stroke="#000000" d="M 1126.5451906665578 1200.6027137820358 L 1143 1186 L 1121.0390147981875 1184.6903706761952 L 1126.5451906665578 1200.6027137820358" stroke-miterlimit="10"/></g></g></svg>